<?xml version="1.0" encoding="UTF-8" standalone="no"?>
<!-- Created with Inkscape (http://www.inkscape.org/) -->

<svg
   width="16"
   height="16"
   viewBox="0 0 16 16"
   version="1.1"
   id="SVGRoot"
   sodipodi:docname="C:\Users\Us\AppData\Local\Temp\ink_ext_XXXXXX.svg7OKR41"
   inkscape:export-filename="bitmap.svg"
   inkscape:export-xdpi="96"
   inkscape:export-ydpi="96"
   xmlns:inkscape="http://www.inkscape.org/namespaces/inkscape"
   xmlns:sodipodi="http://sodipodi.sourceforge.net/DTD/sodipodi-0.dtd"
   xmlns="http://www.w3.org/2000/svg"
   xmlns:svg="http://www.w3.org/2000/svg">
  <sodipodi:namedview
     id="namedview1160"
     pagecolor="#ffffff"
     bordercolor="#000000"
     borderopacity="0.25"
     inkscape:showpageshadow="2"
     inkscape:pageopacity="0.0"
     inkscape:pagecheckerboard="0"
     inkscape:deskcolor="#d1d1d1"
     inkscape:document-units="px"
     showgrid="true"
     inkscape:zoom="0.25"
     inkscape:cx="30.0"
     inkscape:cy="30.0"
     inkscape:window-width="3840"
     inkscape:window-height="2097"
     inkscape:window-x="-8"
     inkscape:window-y="-8"
     inkscape:window-maximized="0"
     inkscape:current-layer="layer1">
    <inkscape:grid
       type="xygrid"
       id="grid1166" />
  </sodipodi:namedview>
  <defs
     id="defs1155" />
  <g
     inkscape:label="Layer 1"
     inkscape:groupmode="layer"
     id="layer1">
    <path
       style="fill:#000080;stroke-width:1.08481"
       d="M 3.1513624,14.059863 C 3.1315913,13.990421 -0.08419399,13.612885 3.291085,8.9393144 5.3794845,6.047618 4.7341108,4.8970878 3.8911736,4.381611 3.2371839,3.9816802 1.6985062,3.9167496 2.6277436,2.5105308 3.5569811,1.104312 5.1646636,0.45848239 5.2465374,1.5760152 c 0.2383345,3.2531365 1.560247,3.9842277 2.465301,4.146953 3.9035286,0.7018399 0.6685994,-2.8398621 3.6705226,-4.3688446 2.046069,-1.04213283 3.321732,0.5296023 3.354151,0.5758474 0.758267,1.0816666 0.164831,2.5052291 -0.962116,3.529512 -1.126948,1.0242828 -0.885881,2.8641421 0.03553,4.2675836 2.468551,3.7599584 -0.802892,4.4080104 -1.677703,4.2867524 C 8.0942643,13.454119 8.4323574,12.284548 9.0650297,9.0033717 9.697702,5.7221946 8.4323574,8.2394998 8.0764792,9.2290612 7.720601,10.218623 6.8770269,10.76617 7.0286156,9.3332255 7.3305194,6.4793756 6.8286403,6.7654175 6.4552564,7.7881209 5.0593236,11.611599 8.3162722,12.379752 6.2247789,13.896835 5.1346051,14.687602 3.1513624,14.059863 3.1513624,14.059863 Z"
       id="path1590"
       sodipodi:nodetypes="csssssssssssssssc" />
  </g>
</svg>
